# xmcd CD database file
#
# Track frame offsets:
#	150
#	17735
#	37099
#	57764
#	81084
#	98004
#	122972
#	144977
#	163224
#	180273
#	198656
#
# Disc length: 2841 seconds
#
# Revision: 5
# Processed by: cddbd v1.5.2PL0 Copyright (c) Steve Scherf et al.
# Submitted via: CDex 1.70beta2
#
DISCID=900b170b
DTITLE=Doobie Brothers - World Gone Crazy
DYEAR=2010
DGENRE=Rock 2001-2010
TTITLE0=Tom Johnston - A Brighter Day
TTITLE1=Pat Simmons, Ted Templeman - Chateau
TTITLE2=Tom Johnston - Nobody
TTITLE3=Tom Johnston - World Gone Crazy
TTITLE4=Pat Simmons, Ted Templeman - Far From Home
TTITLE5=Tom Johnston - Young Man's Game
TTITLE6=Pat Simmons, Ted Templeman - Don't Say Goodbye
TTITLE7=Tom Johnston - My Baby
TTITLE8=Tom Johnston - Old Juarez
TTITLE9=Willie Nelson, Pat Simmons - I Know We Won
TTITLE10=Tom Johnston - Law Dogs
EXTD=YEAR: 2010
EXTT0=
EXTT1=
EXTT2=
EXTT3=
EXTT4=
EXTT5=
EXTT6=
EXTT7=
EXTT8=
EXTT9=
EXTT10=
PLAYORDER=
